<svg id="Capa_1" enable-background="new 0 0 497.44 497.44" height="512" viewBox="0 0 497.44 497.44" width="512" xmlns="http://www.w3.org/2000/svg"><g><path d="m119.726 394.293-30.291 9.116c-13.93 19.07-21.89 42.42-21.89 67.08v18.248c0 4.806 3.896 8.702 8.702 8.702h60.218l23.577-6.343v-53.164z" fill="#ffbd86"/><path d="m407.575 402.85-12.715-4.62-50.767 37.764v49.242l15.732 12.204h61.368c4.806 0 8.702-3.896 8.702-8.702v-18.248c0-24.9-8.12-48.47-22.32-67.64z" fill="#ffbd86"/><path d="m108.497 489.042c0-24.66 7.96-48.01 21.89-67.08 2.174-2.976 4.499-5.843 6.957-8.599l-17.618-19.07-30.291 9.116c-13.93 19.07-21.89 42.42-21.89 67.08v18.248c0 4.806 3.896 8.702 8.702 8.702h32.25z" fill="#f6a96c"/><path d="m359.155 365.22-16.83-6.86h-22.286-123.387l-42.317.31-16.05 6.55c-19.95 8.13-36.68 21.53-48.85 38.19l2 1.95 44.21 44.21c.52.52.82 1.24.82 1.98v45.89h77.808v-.005l1.484-1.619h11.922l1.594 1.619-.001.005h14.752l.989-1.141h12.768l.981 1.141h18.287l1.999-2.078h11.358l1.382 2.078h68.036v-45.89c0-.74.3-1.46.82-1.98l44.21-44.21 2.72-2.51c-12.129-16.4-28.699-29.59-48.419-37.63z" fill="#6ed5a1"/><path d="m311.025 345.58-12.68-5.17c-.8-.33-1.32-1.1-1.32-1.96v-89.49h-96.61v89.49c0 .86-.52 1.63-1.32 1.96l-13.44 5.48-2.922 12.47 41.505 19.277 83.645-4.447 5.294-20.117z" fill="#ffbd86"/><g><path d="m365.029 98.813-5.416 84.328-4.18 32.55h-214.967l-2.79-32.55-5.588-87.017v-16.932l234.167.172z" fill="#cbc4cc"/></g><path d="m342.274 230.76c14.894 0 26.969-12.074 26.969-26.969 0-14.894-12.074-26.969-26.969-26.969h-38.185v53.937h38.185z" fill="#f6a96c"/><path d="m155.016 230.76c-14.894 0-26.969-12.074-26.969-26.969 0-14.894 12.074-26.969 26.969-26.969h27.38v53.937h-27.38z" fill="#f6a96c"/><g><g id="XMLID_146_"><g><path d="m337.505 153.47v67.76c0 41.25-25.97 78.03-64.85 91.82l-.74.26c-15.37 5.45-32.16 5.42-47.51-.1-19.34-6.95-35.46-19.59-46.74-35.64s-17.73-35.49-17.73-56.04v-59.56c0-18.63 6.55-36.67 18.5-50.97l30.92-28.28h85.25l30.42 34.35c8.09 10.41 12.48 23.22 12.48 36.4z" fill="#ffbd86"/></g></g><path d="m365.029 98.813 1.226-19.449-234.166-.172v16.932l1.769 27.548c5.814 2.799 12.326 4.369 19.199 4.369h14.77c14.471 10.593 32.2 16.406 50.149 16.406h19.147c10.413 5.685 22.046 8.663 34.006 8.663 16.419 0 32.316-5.683 44.995-16.046h18.569c10.447 0 20.189-3.046 28.411-8.278z" fill="#b5adb6"/><g id="XMLID_176_"><g><path d="m219.322 248.96h-18.907v89.49c0 .86-.52 1.63-1.32 1.96l-13.44 5.48-2.922 12.47 29.391 13.65 10.945-4.463c.8-.33 1.32-1.1 1.32-1.96v-14.345c0-8.447 7.271-15.028 15.682-14.249 2.726.253 5.469.38 8.225.38 10.351 0 20.547-1.754 30.257-5.197l.788-.277c6.178-2.191 12.079-4.882 17.685-7.995v-47.806-27.138z" fill="#f6a96c"/><path d="m337.505 153.47v67.76c0 41.25-25.97 78.03-64.85 91.82l-.74.26c-15.37 5.45-32.16 5.42-47.51-.1-19.34-6.95-35.46-19.59-46.74-35.64s-17.73-35.49-17.73-56.04v-59.56c0-18.63 6.55-36.67 18.5-50.97l30.92-28.28h85.25l30.42 34.35c8.09 10.41 12.48 23.22 12.48 36.4z" fill="#ffbd86"/></g></g><path d="m229.273 497.435v-37.942c0-4.142-3.358-7.5-7.5-7.5h-10.321c-4.142 0-7.5 3.358-7.5 7.5s3.358 7.5 7.5 7.5h2.821v30.442.005h15c0-.002 0-.004 0-.005z" fill="#fef056"/><path d="m291.919 496.07v-20.065c0-13.241-10.772-24.013-24.013-24.013s-24.013 10.772-24.013 24.013v20.065c0 .468.049.925.131 1.37h14.739c.082-.445.131-.901.131-1.37v-20.065c0-4.97 4.043-9.013 9.013-9.013s9.013 4.043 9.013 9.013v20.065c0 .468.049.925.131 1.37h14.739c.081-.445.129-.902.129-1.37z" fill="#fef056"/><path d="m325.025 117.07-30.42-34.35h-85.25l-30.92 28.28c-4.371 5.23-8.011 10.965-10.88 17.042h.272c14.471 10.593 32.2 16.406 50.149 16.406h19.147c10.413 5.685 22.046 8.663 34.006 8.663 16.419 0 32.316-5.683 44.995-16.046h18.569c.163 0 .324-.011.487-.012-2.074-7.198-5.497-13.99-10.155-19.983z" fill="#f6a96c"/><path d="m153.671 59.233h-.615c-13.478 0-24.405 10.926-24.405 24.404 0 13.478 10.926 24.405 24.405 24.405h21.533l3.845 2.958c11.337 8.721 25.238 13.449 39.541 13.449h24.701c19.131 12.835 44.485 11.277 61.901-3.803l4.135-3.58h25.981c18.271 0 33.082-14.811 33.082-33.082 0-12.848-7.439-24.534-19.079-29.973l-6.381-2.981c0-14.045-11.385-25.43-25.43-25.43h-8.583l-4.794-4.231c-30.885-27.256-76.825-28.581-109.23-3.152l-5.22 1.123c-16.617 3.576-29.715 16.357-33.697 32.881z" fill="#918291"/><g><path d="m248.749 233.969c-12.78 0-23.178-10.397-23.178-23.178v-5.879c0-4.142 3.358-7.5 7.5-7.5s7.5 3.358 7.5 7.5v5.879c0 4.509 3.668 8.178 8.178 8.178s8.178-3.668 8.178-8.178v-5.879c0-4.142 3.358-7.5 7.5-7.5s7.5 3.358 7.5 7.5v5.879c0 12.781-10.397 23.178-23.178 23.178z" fill="#f6a96c"/></g><path d="m275.565 252.704h-54.841c-2.154 0-3.9 1.746-3.9 3.9v1.383c0 17.298 14.023 31.321 31.321 31.321 17.298 0 31.321-14.023 31.321-31.321v-1.383c0-2.154-1.747-3.9-3.901-3.9z" fill="#fd8087"/><g><path d="m203.035 195.323c-4.142 0-7.5-3.358-7.5-7.5v-5.619c0-4.142 3.358-7.5 7.5-7.5s7.5 3.358 7.5 7.5v5.619c0 4.142-3.358 7.5-7.5 7.5z" fill="#918291"/></g><g><path d="m186.579 164.139c-3.085 0-5.976-1.918-7.068-4.992-1.386-3.903.655-8.191 4.558-9.578l.628-.223c11.864-4.205 24.893-4.112 36.69.258 3.884 1.439 5.866 5.754 4.427 9.639-1.438 3.884-5.754 5.867-9.639 4.427-8.508-3.152-17.907-3.22-26.462-.187l-.625.222c-.829.294-1.676.434-2.509.434z" fill="#918291"/></g><g><path d="m294.255 195.323c-4.142 0-7.5-3.358-7.5-7.5v-5.619c0-4.142 3.358-7.5 7.5-7.5s7.5 3.358 7.5 7.5v5.619c0 4.142-3.358 7.5-7.5 7.5z" fill="#918291"/></g><g><path d="m310.711 164.139c-.833 0-1.68-.14-2.51-.434l-.628-.223c-8.55-3.031-17.949-2.965-26.458.188-3.886 1.439-8.2-.543-9.639-4.427s.543-8.2 4.427-9.639c11.799-4.371 24.828-4.463 36.686-.259l.632.224c3.903 1.386 5.944 5.674 4.558 9.578-1.092 3.073-3.983 4.992-7.068 4.992z" fill="#918291"/></g><path d="m185.109 358.444-30.774.225-16.05 6.55c-19.95 8.13-36.68 21.53-48.85 38.19l2 1.95 30.358 30.358c2.541-4.783 5.402-9.386 8.594-13.756 12.17-16.66 28.9-30.06 48.85-38.19l5.872-2.396z" fill="#00c27a"/><g id="XMLID_147_"><g><path d="m311.025 345.58 31.3 12.78-10.64 9.08c-23.28 19.86-52.94 30.79-83.54 30.79s-60.26-10.93-83.54-30.79l-10.27-8.77 31.32-12.78c36.47 29.86 89.01 29.76 125.37-.31z" fill="#fef056"/></g></g><g><path d="m184.746 381.524 10.541-4.302 29.179-11.906c-13.875-3.424-27.164-9.89-38.811-19.426l-31.32 12.78 10.27 8.77c6.283 5.36 13.035 10.064 20.141 14.084z" fill="#fee903"/></g></g></g></svg>