<svg height="512" viewBox="0 0 64 64" width="512" xmlns="http://www.w3.org/2000/svg"><g id="hung-hang-dangle-exersise-man"><path d="m54 5h7v4h-7z" fill="#898890"/><path d="m54 9v11.03a5.805 5.805 0 0 1 -.31 1.89l-5.69 17.08-.64 7h-3.36a4 4 0 0 1 -4-4v-5l5.62-14.98a6.059 6.059 0 0 0 .38-2.11v-10.91z" fill="#ffc477"/><path d="m54 9v11.03a5.805 5.805 0 0 1 -.31 1.89l-5.69 17.08-.64 7h-3.36a4.482 4.482 0 0 1 -.64-.05l.64-6.95 5.69-17.08a5.805 5.805 0 0 0 .31-1.89v-11.03z" fill="#ffa733"/><path d="m54 5v4h-8v-4a2.006 2.006 0 0 1 2-2h4a2.006 2.006 0 0 1 2 2z" fill="#ffb655"/><path d="m54 5v4h-4v-4a2.006 2.006 0 0 0 -2-2h4a2.006 2.006 0 0 1 2 2z" fill="#ff9811"/><path d="m40 37v5a4 4 0 0 0 4 4h3.36l-1.36 15h-28l-1.36-15h3.36a4 4 0 0 0 4-4v-5z" fill="#e0e0e2"/><path d="m47.36 46-1.36 15h-4l1.37-15.05a4.232 4.232 0 0 0 .63.05z" fill="#c6c5ca"/><path d="m18 5h28v4h-28z" fill="#898890"/><path d="m40 21v4a8 8 0 0 1 -16 0v-4a8.262 8.262 0 0 1 .06-1h15.88a8.262 8.262 0 0 1 .06 1z" fill="#ffc477"/><path d="m39.94 20h-15.88a8 8 0 0 1 15.88 0z" fill="#ffcd00"/><path d="m40 21v4a8.013 8.013 0 0 1 -8 8 8.262 8.262 0 0 1 -1-.06 8.16 8.16 0 0 0 2.97-1 7.974 7.974 0 0 0 4.03-6.94v-4a8.262 8.262 0 0 0 -.06-1h2a8.262 8.262 0 0 1 .06 1z" fill="#ffa733"/><path d="m39.94 20h-2a7.985 7.985 0 0 0 -6.9-6.93 6.113 6.113 0 0 1 .96-.07 7.992 7.992 0 0 1 7.94 7z" fill="#ebbf00"/><path d="m36 37v2a4 4 0 0 1 -8 0v-7l.03-.06a7.964 7.964 0 0 0 7.94 0l.03.06z" fill="#ffc477"/><path d="m24 37v5a4 4 0 0 1 -4 4h-3.36l-.64-7-5.69-17.08a5.805 5.805 0 0 1 -.31-1.89v-11.03h8v10.91a6.059 6.059 0 0 0 .38 2.11z" fill="#ffc477"/><path d="m24 37v5a4 4 0 0 1 -4 4h-3.36v-.05a4 4 0 0 0 3.36-3.95v-5l-5.62-14.98a6.059 6.059 0 0 1 -.38-2.11v-10.91h4v10.91a6.059 6.059 0 0 0 .38 2.11z" fill="#ffa733"/><path d="m18 5v4h-8v-4a2.006 2.006 0 0 1 2-2h4a2.006 2.006 0 0 1 2 2z" fill="#ffb655"/><path d="m3 5h7v4h-7z" fill="#898890"/><path d="m18 5v4h-4v-4a2.006 2.006 0 0 0 -2-2h4a2.006 2.006 0 0 1 2 2z" fill="#ff9811"/><path d="m28 22.438h1.999v4.123h-1.999z" transform="matrix(.243 -.97 .97 .243 -1.802 46.692)"/><path d="m32.938 23.5h4.123v1.999h-4.123z" transform="matrix(.97 -.243 .243 .97 -4.901 9.23)"/><path d="m30 28h4v2h-4z"/><path d="m61 4h-6.18a3.01 3.01 0 0 0 -2.82-2h-4a3.01 3.01 0 0 0 -2.82 2h-26.36a3.01 3.01 0 0 0 -2.82-2h-4a3.01 3.01 0 0 0 -2.82 2h-6.18a1 1 0 0 0 -1 1v4a1 1 0 0 0 1 1h6v10.03a6.96 6.96 0 0 0 .36 2.21l5.65 16.97 1.99 21.88a1 1 0 0 0 1 .91h28a1 1 0 0 0 1-.91l1.99-21.88 5.65-16.97a6.96 6.96 0 0 0 .36-2.21v-10.03h6a1 1 0 0 0 1-1v-4a1 1 0 0 0 -1-1zm-52 4h-5v-2h5zm10-2h26v2h-26zm0 4h26v9.91a5.072 5.072 0 0 1 -.32 1.76l-5.37 14.33h-2.31v-3.52a9.01 9.01 0 0 0 4-7.48v-4a9 9 0 0 0 -18 0v4a9.01 9.01 0 0 0 4 7.48v3.52h-2.31l-5.37-14.33a5.072 5.072 0 0 1 -.32-1.76zm13 22a7.008 7.008 0 0 1 -7-7v-4h14v4a7.008 7.008 0 0 1 -7 7zm3 1.47v5.53a3 3 0 0 1 -6 0v-5.53a8.756 8.756 0 0 0 6 0zm-9.71-14.47a7 7 0 0 1 13.42 0zm-14.29-14a1 1 0 0 1 1-1h4a1 1 0 0 1 1 1v3h-6zm6 33.91a1.892 1.892 0 0 0 -.05-.23l-5.69-17.07a5.03 5.03 0 0 1 -.26-1.58v-10.03h6v9.91a6.912 6.912 0 0 0 .45 2.46l5.55 14.81v4.82a3.009 3.009 0 0 1 -3 3h-2.45zm28.09 21.09h-26.18l-1.18-13h2.27a5 5 0 0 0 5-5v-4h2v1a5 5 0 0 0 10 0v-1h2v4a5 5 0 0 0 5 5h2.27zm7.91-39.97a5.03 5.03 0 0 1 -.26 1.58l-5.69 17.07a1.892 1.892 0 0 0 -.05.23l-.55 6.09h-2.45a3.009 3.009 0 0 1 -3-3v-4.82l5.55-14.81a6.912 6.912 0 0 0 .45-2.46v-9.91h6zm0-12.03h-6v-3a1 1 0 0 1 1-1h4a1 1 0 0 1 1 1zm7 0h-5v-2h5z"/></g></svg>