<svg id="Flat" height="512" viewBox="0 0 512 512" width="512" xmlns="http://www.w3.org/2000/svg"><g><g><path d="m160 488 16-72-56-168 104-40h64l88 40-40 168 16 72z" fill="#c85aed"/><g><path d="m296 216-40 40-40-40 8-40h64z" fill="#ffd4cf"/><path d="m288 176h-64l-4.3333 21.6665 18.4733 10.5562a36.0053 36.0053 0 0 0 35.7217-.0005l18.472-10.5559z" fill="#fbb8b0"/><path d="m312 64h-112v92.3935a20 20 0 0 0 10.0772 17.3649l36 20.5714a20 20 0 0 0 19.8456 0l36-20.5714a20 20 0 0 0 10.0772-17.3649z" fill="#ffd4cf"/></g><g fill="#fed672"><rect height="80" rx="10" width="40" x="24" y="208"/><rect height="80" rx="10" width="40" x="160" y="208"/><path d="m48 232h128v32h-128z"/></g><path d="m88 234v33.8579a10 10 0 0 0 2.9289 7.071l21.0711 21.0711-8 104 23.26 23.26a20 20 0 0 0 20.4667 4.8315l26.7868-8.9289a10 10 0 0 0 6.3245-12.6491l-28.838-86.5135-14.6073-87.644a10 10 0 0 0 -9.864-8.356h-29.5287a10 10 0 0 0 -10 10z" fill="#ffd4cf"/><rect fill="#fed672" height="80" rx="10" transform="matrix(-1 0 0 -1 936 496)" width="40" x="448" y="208"/><rect fill="#fed672" height="80" rx="10" transform="matrix(-1 0 0 -1 664 496)" width="40" x="312" y="208"/><path d="m336.002 232.001h120v32h-120z" fill="#fed672"/><path d="m424 234v33.8579a10 10 0 0 1 -2.9289 7.071l-21.0711 21.0711 8 104-23.26 23.26a20 20 0 0 1 -20.4667 4.8315l-26.7868-8.9289a10 10 0 0 1 -6.3245-12.6491l28.838-86.5135 14.6073-87.644a10 10 0 0 1 9.864-8.356h29.5287a10 10 0 0 1 10 10z" fill="#ffd4cf"/><path d="m212 24h52a0 0 0 0 1 0 0v56a0 0 0 0 1 0 0h-62a10 10 0 0 1 -10-10v-26a20 20 0 0 1 20-20z" fill="#d3463d"/><path d="m248 24h50a30 30 0 0 1 30 30v50a0 0 0 0 1 0 0h-50a30 30 0 0 1 -30-30v-50a0 0 0 0 1 0 0z" fill="#fa5d3f"/></g><g fill="#dea3f7"><path d="m215.8447 441.5688-15.6894-3.1376 7.5835-37.917-15.3282-45.9842 15.1788-5.06 16 48a7.9983 7.9983 0 0 1 .2553 4.0986z"/><path d="m288 336h40v16h-40z" transform="matrix(.6 -.8 .8 .6 -152 384.006)"/><path d="m288 414.459h16v43.081h-16z" transform="matrix(.928 -.371 .371 .928 -140.755 141.116)"/></g></g></svg>